<?xml version="1.0" encoding="UTF-8" standalone="no"?>
<!DOCTYPE svg PUBLIC "-//W3C//DTD SVG 1.1//EN" "http://www.w3.org/Graphics/SVG/1.1/DTD/svg11.dtd">
<svg width="100%" height="100%" viewBox="0 0 107 107" version="1.1" xmlns="http://www.w3.org/2000/svg" xmlns:xlink="http://www.w3.org/1999/xlink" xml:space="preserve" style="fill-rule:evenodd;clip-rule:evenodd;stroke-linejoin:round;stroke-miterlimit:1.41421;">
    <g transform="matrix(2.66667,0,0,2.66667,0,0)">
        <path id="mark_28_" d="M13.3,0L0,7.7L0,25.3C0,33.4 6.5,40 14.6,40C17.3,40 19.8,39.3 22,38.1L32.8,31.9C37.1,29.6 40,25.2 40,20L40,1.6L37.4,0.1L26,6.2L26,25.4C26,26.2 25.9,27 25.8,27.8C25.6,28.6 25.4,29.3 25.1,30L24.8,30.6C24.4,30.6 21.9,29.7 20.6,28.8C20,28.4 19.5,28 19,27.5C18.5,27 18.1,26.5 17.7,25.9C17.3,25.3 17,24.7 16.7,24.1C16.4,23.5 16.2,22.8 16.1,22.1C16,21.4 16,20.7 16,20L16,1.6L13.3,0ZM19.8,36.2C19.1,36.5 18.1,36.9 17.3,37.1C16.5,37.3 15.8,37.3 15,37.3C14.2,37.3 13.4,37.2 12.6,37C11.8,36.8 11.1,36.6 10.4,36.3C9.7,36 9,35.6 8.4,35.2C6.6,34.1 5.7,33.1 5,32C4.6,31.4 4.2,30.7 3.9,30C3.6,29.3 3.4,28.5 3.2,27.7C3,26.9 3,26.1 3,25.3L3,9.2L13,3.1L13,20C13,26.4 17.7,31.8 23.7,33.1C23.5,33.4 23.3,33.7 23,33.9C21.9,35 21,35.7 19.8,36.2L19.8,36.2ZM36.8,22.2C36.7,22.9 36.4,23.6 36.2,24.2C35.9,24.8 35.6,25.4 35.2,26C34.8,26.6 33.6,28.1 32,29C30.4,29.9 28.9,30.2 28,30.4C28.6,28.8 29,27.2 29,25.4L29,7.7L37,3.1L37,20C37,20.8 37,21.5 36.8,22.2L36.8,22.2Z" style="fill:rgb(2,179,228);fill-rule:nonzero;"/>
    </g>
</svg>
